<?xml version="1.0" standalone="no"?>
<!DOCTYPE svg PUBLIC "-//W3C//DTD SVG 20010904//EN"
 "http://www.w3.org/TR/2001/REC-SVG-20010904/DTD/svg10.dtd">
<svg version="1.0" xmlns="http://www.w3.org/2000/svg"
 width="1024.000000pt" height="1024.000000pt" viewBox="0 0 1024.000000 1024.000000"
 preserveAspectRatio="xMidYMid meet">

<g transform="translate(0.000000,1024.000000) scale(0.100000,-0.100000)"
fill="#000000" stroke="none">
<path d="M5850 6833 c-390 -16 -782 -240 -1010 -576 l-32 -49 78 7 c44 4 99
11 123 16 45 10 555 14 570 5 5 -3 51 -10 102 -16 91 -10 119 -15 259 -46 102
-23 302 -81 355 -103 11 -5 61 -26 110 -46 283 -118 563 -291 788 -487 26 -23
50 -39 53 -36 6 7 -13 205 -27 273 -12 56 -46 179 -59 210 -35 89 -49 119 -84
180 -126 226 -325 416 -556 530 -210 105 -421 148 -670 138z"/>
<path d="M5099 5726 c-2 -2 -49 -9 -104 -15 -55 -6 -116 -15 -135 -20 -19 -5
-69 -17 -110 -26 -41 -9 -90 -22 -109 -27 l-34 -10 6 -142 c13 -317 106 -563
308 -812 328 -404 918 -568 1429 -397 188 63 385 188 526 335 98 102 218 278
209 307 -7 25 -210 221 -309 300 -208 165 -515 330 -736 396 -30 9 -66 21 -80
25 -76 25 -239 57 -380 75 -102 13 -470 21 -481 11z"/>
</g>
</svg>
